<svg width="420" height="126" viewBox="0 0 420 126" fill="none" xmlns="http://www.w3.org/2000/svg">
<path d="M89.775 77.0963C89.775 77.0963 81.9788 59.22 66.0713 60.3225C65.9138 60.3225 47.25 59.7713 43.9425 83.6325C43.9425 83.475 24.0975 81.7425 22.7588 96.705C22.9163 96.7838 21.1838 115.999 46.2263 114.345L101.036 114.44C101.036 114.44 123.165 105.179 114.188 87.3495C105.21 69.5205 89.775 77.0963 89.775 77.0963Z" fill="white"/>
<path d="M91.0508 50.841C91.0508 56.7315 89.838 62.3543 87.6487 67.4415C86.8927 69.2055 86.0108 70.9065 85.0343 72.5445C81.4433 66.4808 74.8282 62.4015 67.2997 62.4015C56.1802 62.4015 47.1082 71.253 46.7145 82.2623C46.6987 82.5143 46.6987 82.7505 46.6987 83.0025V83.0655C46.6987 83.3175 46.6987 83.5695 46.7145 83.8215C46.7932 85.617 44.9977 86.9085 43.3282 86.31C43.1077 86.2313 42.9187 86.1525 42.6982 86.0895H42.6667C42.6037 86.058 42.5407 86.058 42.462 86.0265C42.3832 85.995 42.3045 85.995 42.2415 85.9635C42.084 85.932 41.958 85.8848 41.8005 85.8533C40.9185 85.6485 40.005 85.5383 39.0757 85.5068C35.7682 85.4438 32.7127 86.5935 30.3345 88.5465C28.7437 87.759 27.216 86.877 25.7512 85.9005C14.3955 78.3878 6.91425 65.5043 6.91425 50.841C6.91425 27.6098 25.7512 8.78851 48.9825 8.78851C72.2137 8.78851 91.0508 27.6098 91.0508 50.841Z" fill="#FFBC00"/>
<path d="M96.9255 73.647C95.0197 73.6627 93.177 73.9147 91.4287 74.3715C89.8065 74.7967 88.2472 75.411 86.7982 76.1985C86.7667 76.2142 86.7667 76.2457 86.7667 76.2772C86.7982 76.3717 86.8297 76.482 86.8612 76.5765C86.8927 76.6395 86.8927 76.7025 86.9242 76.7655C86.9557 76.86 86.9872 76.986 87.0187 77.0805C87.6172 79.065 89.7277 80.199 91.7122 79.5375C91.791 79.506 91.8697 79.4902 91.9327 79.4587C92.0587 79.4272 92.1847 79.38 92.295 79.3485C92.421 79.317 92.5312 79.2697 92.6572 79.254C93.7912 78.9547 94.9725 78.7657 96.1852 78.7027C106.234 78.2145 114.534 86.7195 113.778 96.7522C113.179 104.596 107.194 110.943 99.54 112.093C98.721 112.219 97.8705 112.282 97.02 112.282H83.2545C83.1915 112.282 83.16 112.36 83.223 112.392C86.8455 115.353 91.4287 117.164 96.4215 117.306C96.6262 117.322 96.831 117.322 97.02 117.322C97.8705 117.322 98.7052 117.274 99.54 117.18C110.439 115.92 118.912 106.612 118.865 95.3662C118.818 83.3647 108.943 73.5997 96.9255 73.647ZM41.328 112.297H38.808C37.9575 112.297 37.107 112.219 36.288 112.061C30.0037 110.848 25.263 105.241 25.4205 98.5635C25.515 94.5315 27.4207 90.9562 30.3345 88.578C32.7127 86.625 35.784 85.4752 39.0757 85.5382C40.005 85.5697 40.9185 85.68 41.8005 85.8847C41.958 85.9162 42.084 85.9635 42.2415 85.995C42.3202 86.0107 42.399 86.0265 42.462 86.058C42.525 86.0737 42.588 86.0895 42.6667 86.121H42.6982C44.6985 86.7352 46.7145 85.2075 46.6987 83.097V83.034C46.6987 82.782 46.6987 82.53 46.7145 82.2937C45.171 81.5535 43.5015 81.0337 41.769 80.7502C40.8082 80.5927 39.8317 80.514 38.8237 80.514C33.7365 80.514 29.106 82.593 25.767 85.9477C22.4595 89.2867 20.3962 93.87 20.3962 98.9415C20.3962 108.234 27.3262 115.967 36.3037 117.18C36.9495 117.274 37.5952 117.322 38.241 117.337H38.2725C38.4457 117.353 38.6347 117.353 38.808 117.353C38.997 117.353 39.186 117.353 39.375 117.337C44.037 117.196 48.2895 115.306 51.4552 112.313H41.328V112.297Z" fill="#6D6D6D"/>
<path d="M91.4287 74.3715C90.5152 71.8673 89.2552 69.5363 87.6487 67.4573C82.9552 61.3305 75.5842 57.3773 67.284 57.3773C53.9122 57.3773 42.903 67.662 41.7375 80.7188C41.6745 81.4748 41.643 82.2465 41.643 83.0183C41.643 83.979 41.6902 84.9398 41.8005 85.869C41.958 85.9005 42.084 85.9478 42.2415 85.9793C42.3202 85.995 42.399 86.0108 42.462 86.0423C42.525 86.058 42.588 86.0738 42.6667 86.1053H42.6982C42.9187 86.1683 43.1077 86.247 43.3282 86.3258C45.0135 86.9243 46.7932 85.6328 46.7145 83.8373C46.6987 83.5853 46.6987 83.3333 46.6987 83.0813V83.0183C46.6987 82.7663 46.6987 82.5143 46.7145 82.278C47.1082 71.2688 56.196 62.4173 67.2997 62.4173C74.844 62.4173 81.4432 66.4808 85.0342 72.5603C85.7115 73.7258 86.2942 74.9385 86.751 76.23C86.751 76.2458 86.7667 76.2615 86.7667 76.2773C86.7982 76.3718 86.8297 76.482 86.8612 76.5765C86.8927 76.6395 86.8927 76.7025 86.9242 76.7655C86.94 76.797 86.9557 76.8285 86.9557 76.86C87.6172 78.9548 89.838 80.1518 91.9327 79.4745C92.0587 79.443 92.1847 79.3958 92.295 79.3643C92.421 79.3328 92.5312 79.2855 92.6572 79.2698C92.4052 77.5688 91.9957 75.9308 91.4287 74.3715ZM97.02 112.298C96.1695 112.298 95.319 112.424 94.5 112.298H41.328C41.0445 112.345 40.7925 112.361 40.509 112.361C39.9577 112.361 39.3907 112.298 38.808 112.298C37.9575 112.298 37.107 112.219 36.288 112.061L38.2252 117.322H97.1302L99.5557 112.109C98.721 112.235 97.8862 112.298 97.02 112.298Z" fill="#6D6D6D"/>
<path d="M159.061 57.0969L144.109 12.6659H150.69L164.428 53.6693H161.106L175.355 12.6659H181.234L195.164 53.6693H191.969L205.899 12.6659H211.969L197.017 57.0969H190.307L177.272 19.0766H178.997L165.898 57.0969H159.061Z" fill="white"/>
<path d="M231.413 57.4777C227.792 57.4777 224.597 56.7372 221.828 55.2562C219.102 53.7751 216.972 51.744 215.438 49.1628C213.947 46.5815 213.202 43.6195 213.202 40.2766C213.202 36.9337 213.926 33.9716 215.374 31.3904C216.865 28.8091 218.889 26.7992 221.445 25.3604C224.043 23.8794 226.961 23.1389 230.199 23.1389C233.479 23.1389 236.376 23.8582 238.889 25.297C241.402 26.7357 243.362 28.7668 244.768 31.3904C246.216 33.9716 246.94 36.9971 246.94 40.467C246.94 40.7209 246.919 41.0171 246.876 41.3556C246.876 41.6941 246.855 42.0115 246.812 42.3077H217.994V37.9281H243.617L241.125 39.4514C241.168 37.2933 240.721 35.368 239.784 33.6754C238.846 31.9828 237.547 30.671 235.886 29.7401C234.267 28.7668 232.371 28.2802 230.199 28.2802C228.069 28.2802 226.173 28.7668 224.512 29.7401C222.85 30.671 221.551 32.0039 220.614 33.7389C219.677 35.4315 219.208 37.378 219.208 39.5784V40.5939C219.208 42.8366 219.719 44.8466 220.742 46.6238C221.807 48.3588 223.276 49.7129 225.151 50.6861C227.025 51.6594 229.176 52.146 231.605 52.146C233.607 52.146 235.417 51.8075 237.036 51.1304C238.697 50.4534 240.146 49.4378 241.381 48.0837L244.768 52.019C243.234 53.7963 241.317 55.1504 239.017 56.0813C236.759 57.0122 234.224 57.4777 231.413 57.4777Z" fill="white"/>
<path d="M275.545 57.0969V49.9879L275.225 48.655V36.5317C275.225 33.9504 274.459 31.9616 272.925 30.5652C271.434 29.1265 269.176 28.4071 266.152 28.4071C264.15 28.4071 262.19 28.7457 260.273 29.4227C258.356 30.0574 256.737 30.9249 255.417 32.0251L252.861 27.455C254.607 26.0586 256.695 25.0008 259.123 24.2814C261.594 23.5197 264.171 23.1389 266.855 23.1389C271.498 23.1389 275.076 24.2602 277.59 26.5029C280.103 28.7457 281.36 32.1732 281.36 36.7856V57.0969H275.545ZM264.427 57.4777C261.913 57.4777 259.698 57.0546 257.781 56.2083C255.907 55.3619 254.458 54.1983 253.436 52.7172C252.414 51.1939 251.902 49.4801 251.902 47.5759C251.902 45.7564 252.328 44.1061 253.18 42.6251C254.075 41.144 255.502 39.9592 257.462 39.0706C259.464 38.182 262.147 37.7376 265.513 37.7376H276.248V42.1173H265.768C262.701 42.1173 260.635 42.6251 259.57 43.6406C258.505 44.6562 257.973 45.8833 257.973 47.3221C257.973 48.9723 258.633 50.3053 259.954 51.3208C261.274 52.2941 263.106 52.7807 265.449 52.7807C267.749 52.7807 269.751 52.2729 271.455 51.2574C273.202 50.2418 274.459 48.7608 275.225 46.8143L276.439 51.0035C275.63 52.9923 274.203 54.5791 272.158 55.7639C270.114 56.9065 267.536 57.4777 264.427 57.4777Z" fill="white"/>
<path d="M304.341 57.4777C300.933 57.4777 298.292 56.5679 296.418 54.7484C294.543 52.9288 293.606 50.3264 293.606 46.9412V16.0934H299.741V46.6873C299.741 48.5069 300.188 49.9033 301.082 50.8765C302.02 51.8498 303.34 52.3364 305.044 52.3364C306.961 52.3364 308.559 51.8075 309.837 50.7496L311.754 55.1292C310.816 55.9332 309.687 56.5256 308.367 56.9065C307.089 57.2873 305.747 57.4777 304.341 57.4777ZM287.855 28.4706V23.4563H309.453V28.4706H287.855Z" fill="white"/>
<path d="M337.253 23.1389C340.022 23.1389 342.45 23.6678 344.538 24.7257C346.668 25.7836 348.329 27.3916 349.522 29.5496C350.714 31.7077 351.311 34.4371 351.311 37.7376V57.0969H345.177V38.4359C345.177 35.1776 344.367 32.7233 342.748 31.073C341.172 29.4227 338.936 28.5976 336.039 28.5976C333.866 28.5976 331.971 29.0207 330.352 29.867C328.733 30.7133 327.477 31.9616 326.582 33.6119C325.73 35.2622 325.304 37.3145 325.304 39.7688V57.0969H319.17V10H325.304V32.5329L324.09 30.1209C325.198 27.9205 326.902 26.2067 329.202 24.9796C331.502 23.7525 334.186 23.1389 337.253 23.1389Z" fill="white"/>
<path d="M377.743 57.4777C374.123 57.4777 370.928 56.7372 368.159 55.2562C365.432 53.7751 363.302 51.744 361.769 49.1628C360.278 46.5815 359.532 43.6195 359.532 40.2766C359.532 36.9337 360.257 33.9716 361.705 31.3904C363.196 28.8091 365.219 26.7992 367.775 25.3604C370.374 23.8794 373.292 23.1389 376.529 23.1389C379.81 23.1389 382.706 23.8582 385.22 25.297C387.733 26.7357 389.693 28.7668 391.098 31.3904C392.547 33.9716 393.271 36.9971 393.271 40.467C393.271 40.7209 393.25 41.0171 393.207 41.3556C393.207 41.6941 393.186 42.0115 393.143 42.3077H364.325V37.9281H389.948L387.456 39.4514C387.499 37.2933 387.051 35.368 386.114 33.6754C385.177 31.9828 383.878 30.671 382.216 29.7401C380.598 28.7668 378.702 28.2802 376.529 28.2802C374.399 28.2802 372.504 28.7668 370.842 29.7401C369.181 30.671 367.882 32.0039 366.945 33.7389C366.007 35.4315 365.539 37.378 365.539 39.5784V40.5939C365.539 42.8366 366.05 44.8466 367.072 46.6238C368.137 48.3588 369.607 49.7129 371.481 50.6861C373.356 51.6594 375.507 52.146 377.935 52.146C379.937 52.146 381.748 51.8075 383.367 51.1304C385.028 50.4534 386.476 49.4378 387.712 48.0837L391.098 52.019C389.565 53.7963 387.648 55.1504 385.347 56.0813C383.09 57.0122 380.555 57.4777 377.743 57.4777Z" fill="white"/>
<path d="M401.789 57.0969V23.4563H407.668V32.5963L407.092 30.3113C408.03 27.984 409.606 26.2067 411.821 24.9796C414.036 23.7525 416.762 23.1389 420 23.1389V29.0419C419.744 28.9995 419.489 28.9784 419.233 28.9784C419.02 28.9784 418.807 28.9784 418.594 28.9784C415.314 28.9784 412.716 29.9516 410.799 31.8981C408.882 33.8446 407.923 36.6586 407.923 40.34V57.0969H401.789Z" fill="white"/>
<path d="M161.681 114.619L142 70.1882H148.901L166.984 111.192H163.023L181.234 70.1882H187.624L168.007 114.619H161.681Z" fill="white"/>
<path d="M205.559 115C202.663 115 200.107 114.471 197.891 113.413C195.719 112.355 194.015 110.747 192.78 108.589C191.587 106.389 190.99 103.638 190.99 100.338V80.9785H197.125V99.6396C197.125 102.94 197.913 105.416 199.489 107.066C201.108 108.716 203.365 109.541 206.262 109.541C208.392 109.541 210.245 109.118 211.821 108.272C213.398 107.383 214.612 106.114 215.464 104.464C216.316 102.771 216.742 100.74 216.742 98.3701V80.9785H222.876V114.619H217.061V105.543L218.02 107.955C216.912 110.197 215.251 111.932 213.035 113.159C210.82 114.386 208.328 115 205.559 115Z" fill="white"/>
<path d="M249.634 115C246.013 115 242.818 114.259 240.049 112.778C237.323 111.297 235.193 109.266 233.659 106.685C232.168 104.104 231.423 101.142 231.423 97.7989C231.423 94.4559 232.147 91.4939 233.595 88.9127C235.086 86.3314 237.11 84.3215 239.666 82.8827C242.264 81.4017 245.182 80.6612 248.42 80.6612C251.7 80.6612 254.597 81.3805 257.11 82.8193C259.623 84.258 261.583 86.2891 262.989 88.9127C264.437 91.4939 265.161 94.5194 265.161 97.9893C265.161 98.2432 265.14 98.5394 265.097 98.8779C265.097 99.2164 265.076 99.5338 265.034 99.83H236.215V95.4504H261.839L259.347 96.9737C259.389 94.8156 258.942 92.8903 258.005 91.1977C257.068 89.5051 255.768 88.1933 254.107 87.2624C252.488 86.2891 250.592 85.8025 248.42 85.8025C246.29 85.8025 244.394 86.2891 242.733 87.2624C241.072 88.1933 239.772 89.5262 238.835 91.2612C237.898 92.9538 237.429 94.9003 237.429 97.1007V98.1162C237.429 100.359 237.94 102.369 238.963 104.146C240.028 105.881 241.498 107.235 243.372 108.208C245.246 109.182 247.397 109.668 249.826 109.668C251.828 109.668 253.638 109.33 255.257 108.653C256.918 107.976 258.367 106.96 259.602 105.606L262.989 109.541C261.455 111.319 259.538 112.673 257.238 113.604C254.98 114.535 252.446 115 249.634 115Z" fill="white"/>
<path d="M280.212 114.619L267.624 80.9785H273.439L284.621 111.446H281.873L293.503 80.9785H298.679L310.053 111.446H307.369L318.807 80.9785H324.302L311.65 114.619H305.772L295.1 86.818H296.89L286.091 114.619H280.212Z" fill="white"/>
<path d="M216.796 115V115.25H217.046H222.954H223.204V115V80.6935V80.4435H222.954H217.046H216.796V80.6935V115ZM216.927 73.0983L216.926 73.0983L216.931 73.1031C217.76 73.9288 218.788 74.3411 220 74.3411C221.25 74.3411 222.282 73.9304 223.073 73.0983L223.074 73.0983L223.078 73.0933C223.86 72.2248 224.25 71.1716 224.25 69.9485C224.25 68.7637 223.836 67.7704 223.007 66.9878C222.219 66.161 221.209 65.75 220 65.75C218.788 65.75 217.76 66.1624 216.931 66.988L216.931 66.988L216.927 66.9929C216.14 67.8203 215.75 68.8548 215.75 70.0779C215.75 71.2607 216.142 72.2727 216.927 73.0983Z" fill="#FFBC00" stroke="#FFBC00" stroke-width="0.5"/>
</svg>
